<svg width="173" height="178" viewBox="0 0 173 178" fill="none" xmlns="http://www.w3.org/2000/svg">
<path d="M130.005 9.85748C117.783 1.55047 91.6704 -2.41929 71.625 1.55021C57.3552 4.37598 43.9969 10.6606 32.7222 19.8526C21.4475 29.0447 12.601 40.8633 6.95877 54.2714C1.31658 67.6795 -0.948852 82.2674 0.36126 96.7552C1.67137 111.243 6.51698 125.188 14.4729 137.366C22.4289 149.545 33.2521 159.585 45.9928 166.605C58.7336 173.626 73.0025 177.412 87.5478 177.632C102.093 177.852 116.47 174.499 129.417 167.867L113.338 150.975C103.338 154.308 98.7929 155.576 87.884 155.411C76.9751 155.246 66.2733 152.407 56.7178 147.141C47.1622 141.876 39.0448 134.346 33.0778 125.212C27.1109 116.078 23.4767 105.62 22.4941 94.7538C21.5115 83.8879 23.2106 72.947 27.4422 62.8909C31.6739 52.8348 38.3088 43.9709 46.7648 37.0768C55.2208 30.1828 65.2395 25.4693 75.9419 23.35C86.6442 21.2307 105.004 22.636 114.449 27.0806L130.005 9.85748Z" fill="white"/>
<rect x="72.514" y="88.7512" width="122.227" height="20.0008" transform="rotate(-45.0668 72.514 88.7512)" fill="white"/>
<rect x="98.823" y="115.578" width="83.3367" height="20.0008" transform="rotate(-45.0668 98.823 115.578)" fill="white"/>
<rect x="114.559" y="103.024" width="58.8913" height="20.0008" transform="rotate(44.9332 114.559 103.024)" fill="white"/>
</svg>
